<svg width="612" height="751" viewBox="0 0 612 751" fill="none" xmlns="http://www.w3.org/2000/svg">
<mask id="mask0" mask-type="alpha" maskUnits="userSpaceOnUse" x="0" y="0" width="1016" height="1016">
<path d="M545.337 90.625L413.477 0L322.852 131.86L454.712 222.485L545.337 90.625Z" fill="#C4C4C4"/>
<path d="M437.72 247.209L305.859 156.584L215.234 288.444L347.095 379.069L437.72 247.209Z" fill="#C4C4C4"/>
<path d="M330.102 403.793L198.242 313.168L107.617 445.028L239.477 535.653L330.102 403.793Z" fill="#C4C4C4"/>
<path d="M222.485 560.377L90.625 469.752L0 601.612L131.86 692.237L222.485 560.377Z" fill="#C4C4C4"/>
<path d="M701.921 198.242L570.061 107.617L479.436 239.477L611.296 330.102L701.921 198.242Z" fill="#C4C4C4"/>
<path d="M594.304 354.826L462.443 264.201L371.818 396.061L503.679 486.686L594.304 354.826Z" fill="#C4C4C4"/>
<path d="M486.686 511.41L354.826 420.785L264.201 552.645L396.061 643.27L486.686 511.41Z" fill="#C4C4C4"/>
<path d="M379.069 667.994L247.209 577.369L156.584 709.229L288.444 799.854L379.069 667.994Z" fill="#C4C4C4"/>
<path d="M750.888 462.443L619.027 371.818L528.402 503.679L660.263 594.304L750.888 462.443Z" fill="#C4C4C4"/>
<path d="M643.27 619.027L511.41 528.402L420.785 660.263L552.645 750.888L643.27 619.027Z" fill="#C4C4C4"/>
<path d="M535.653 775.611L403.793 684.986L313.168 816.847L445.028 907.472L535.653 775.611Z" fill="#C4C4C4"/>
<path d="M799.854 726.645L667.994 636.02L577.369 767.88L709.229 858.505L799.854 726.645Z" fill="#C4C4C4"/>
</mask>
<g mask="url(#mask0)">
<path d="M1015.09 413.477L413.477 0L0 601.612L601.612 1015.09L1015.09 413.477Z" fill="white" fill-opacity="0.03"/>
</g>
</svg>
