<svg width="213" height="80" viewBox="0 0 213 80" fill="none" xmlns="http://www.w3.org/2000/svg">
<path d="M101.81 33.87V29.1H110.12V51H104.78V33.87H101.81ZM124.459 35.01C124.299 34.27 124.019 33.72 123.619 33.36C123.219 32.98 122.649 32.79 121.909 32.79C120.769 32.79 119.949 33.29 119.449 34.29C118.949 35.27 118.689 36.83 118.669 38.97C119.109 38.27 119.739 37.72 120.559 37.32C121.399 36.92 122.319 36.72 123.319 36.72C125.279 36.72 126.849 37.34 128.029 38.58C129.229 39.82 129.829 41.55 129.829 43.77C129.829 45.23 129.529 46.51 128.929 47.61C128.349 48.71 127.489 49.57 126.349 50.19C125.229 50.81 123.899 51.12 122.359 51.12C119.279 51.12 117.139 50.16 115.939 48.24C114.739 46.3 114.139 43.52 114.139 39.9C114.139 36.1 114.769 33.28 116.029 31.44C117.309 29.58 119.349 28.65 122.149 28.65C123.649 28.65 124.909 28.95 125.929 29.55C126.969 30.13 127.749 30.9 128.269 31.86C128.809 32.82 129.129 33.87 129.229 35.01H124.459ZM122.089 40.77C121.229 40.77 120.509 41.03 119.929 41.55C119.369 42.05 119.089 42.77 119.089 43.71C119.089 44.67 119.349 45.42 119.869 45.96C120.409 46.5 121.169 46.77 122.149 46.77C123.029 46.77 123.719 46.51 124.219 45.99C124.739 45.45 124.999 44.72 124.999 43.8C124.999 42.86 124.749 42.12 124.249 41.58C123.749 41.04 123.029 40.77 122.089 40.77ZM149.291 36.72C149.291 37.94 149.011 39.06 148.451 40.08C147.891 41.08 147.031 41.89 145.871 42.51C144.711 43.13 143.271 43.44 141.551 43.44H138.371V51H133.241V29.94H141.551C143.231 29.94 144.651 30.23 145.811 30.81C146.971 31.39 147.841 32.19 148.421 33.21C149.001 34.23 149.291 35.4 149.291 36.72ZM141.161 39.36C142.141 39.36 142.871 39.13 143.351 38.67C143.831 38.21 144.071 37.56 144.071 36.72C144.071 35.88 143.831 35.23 143.351 34.77C142.871 34.31 142.141 34.08 141.161 34.08H138.371V39.36H141.161ZM165.072 47.28H157.212L155.952 51H150.582L158.202 29.94H164.142L171.762 51H166.332L165.072 47.28ZM163.752 43.32L161.142 35.61L158.562 43.32H163.752ZM181.971 29.94C184.191 29.94 186.131 30.38 187.791 31.26C189.451 32.14 190.731 33.38 191.631 34.98C192.551 36.56 193.011 38.39 193.011 40.47C193.011 42.53 192.551 44.36 191.631 45.96C190.731 47.56 189.441 48.8 187.761 49.68C186.101 50.56 184.171 51 181.971 51H174.081V29.94H181.971ZM181.641 46.56C183.581 46.56 185.091 46.03 186.171 44.97C187.251 43.91 187.791 42.41 187.791 40.47C187.791 38.53 187.251 37.02 186.171 35.94C185.091 34.86 183.581 34.32 181.641 34.32H179.211V46.56H181.641ZM203.498 51.21C201.958 51.21 200.578 50.96 199.358 50.46C198.138 49.96 197.158 49.22 196.418 48.24C195.698 47.26 195.318 46.08 195.278 44.7H200.738C200.818 45.48 201.088 46.08 201.548 46.5C202.008 46.9 202.608 47.1 203.348 47.1C204.108 47.1 204.708 46.93 205.148 46.59C205.588 46.23 205.808 45.74 205.808 45.12C205.808 44.6 205.628 44.17 205.268 43.83C204.928 43.49 204.498 43.21 203.978 42.99C203.478 42.77 202.758 42.52 201.818 42.24C200.458 41.82 199.348 41.4 198.488 40.98C197.628 40.56 196.888 39.94 196.268 39.12C195.648 38.3 195.338 37.23 195.338 35.91C195.338 33.95 196.048 32.42 197.468 31.32C198.888 30.2 200.738 29.64 203.018 29.64C205.338 29.64 207.208 30.2 208.628 31.32C210.048 32.42 210.808 33.96 210.908 35.94H205.358C205.318 35.26 205.068 34.73 204.608 34.35C204.148 33.95 203.558 33.75 202.838 33.75C202.218 33.75 201.718 33.92 201.338 34.26C200.958 34.58 200.768 35.05 200.768 35.67C200.768 36.35 201.088 36.88 201.728 37.26C202.368 37.64 203.368 38.05 204.728 38.49C206.088 38.95 207.188 39.39 208.028 39.81C208.888 40.23 209.628 40.84 210.248 41.64C210.868 42.44 211.178 43.47 211.178 44.73C211.178 45.93 210.868 47.02 210.248 48C209.648 48.98 208.768 49.76 207.608 50.34C206.448 50.92 205.078 51.21 203.498 51.21Z" fill="white"/>
<mask id="mask0" mask-type="alpha" maskUnits="userSpaceOnUse" x="0" y="0" width="80" height="80">
<path d="M17.5342 0H0V17.5342H17.5342V0Z" fill="#C4C4C4"/>
<path d="M17.5342 20.8219H0V38.3562H17.5342V20.8219Z" fill="#C4C4C4"/>
<path d="M17.5342 41.6438H0V59.1781H17.5342V41.6438Z" fill="#C4C4C4"/>
<path d="M17.5342 62.4658H0V80H17.5342V62.4658Z" fill="#C4C4C4"/>
<path d="M38.3562 0H20.8219V17.5342H38.3562V0Z" fill="#C4C4C4"/>
<path d="M38.3562 20.8219H20.8219V38.3562H38.3562V20.8219Z" fill="#C4C4C4"/>
<path d="M38.3562 41.6438H20.8219V59.1781H38.3562V41.6438Z" fill="#C4C4C4"/>
<path d="M38.3562 62.4658H20.8219V80H38.3562V62.4658Z" fill="#C4C4C4"/>
<path d="M59.1781 0H41.6438V17.5342H59.1781V0Z" fill="#C4C4C4"/>
<path d="M59.1781 20.8219H41.6438V38.3562H59.1781V20.8219Z" fill="#C4C4C4"/>
<path d="M59.1781 41.6438H41.6438V59.1781H59.1781V41.6438Z" fill="#C4C4C4"/>
<path d="M59.1781 62.4658H41.6438V80H59.1781V62.4658Z" fill="#C4C4C4"/>
<path d="M80 0H62.4658V17.5342H80V0Z" fill="#C4C4C4"/>
<path d="M80 20.8219H62.4658V38.3562H80V20.8219Z" fill="#C4C4C4"/>
<path d="M80 41.6438H62.4658V59.1781H80V41.6438Z" fill="#C4C4C4"/>
<path d="M80 62.4658H62.4658V80H80V62.4658Z" fill="#C4C4C4"/>
</mask>
<g mask="url(#mask0)">
<path d="M80 0H0V80H80V0Z" fill="url(#paint0_radial)"/>
</g>
<defs>
<radialGradient id="paint0_radial" cx="0" cy="0" r="1" gradientUnits="userSpaceOnUse" gradientTransform="translate(40) rotate(90) scale(80)">
<stop stop-color="#43E97B"/>
<stop offset="1" stop-color="#38F9D7"/>
</radialGradient>
</defs>
</svg>
